<svg xmlns="http://www.w3.org/2000/svg" xmlns:xlink="http://www.w3.org/1999/xlink" version="1.1" id="Layer_1" x="0px" y="0px" width="100%" viewBox="0 0 1024 1024" enable-background="new 0 0 1024 1024" xml:space="preserve">
<path fill="#ffffff" opacity="1.000000" stroke="none" d=" M524.161316,697.255249   C526.556702,679.518921 527.336731,662.071777 529.116577,644.746643   C530.828247,628.084534 532.163269,611.307739 535.206360,594.794617   C536.620544,587.120422 535.515991,580.583618 529.168152,575.526245   C524.772583,572.024292 521.966492,566.968872 517.981506,563.365112   C515.744324,564.255310 515.917419,565.724731 516.294861,566.952881   C521.350281,583.403870 517.158813,600.001770 517.159851,616.529419   C517.160034,618.993896 516.155334,620.425842 513.696899,621.304260   C506.675140,623.813232 500.929413,636.171326 503.282745,643.205750   C503.915955,645.098572 504.667358,646.995117 504.959229,648.950439   C505.721008,654.053589 507.637390,658.359863 511.476776,662.045837   C515.672302,666.073730 514.763977,668.651062 509.548370,670.852173   C502.370667,673.881470 494.305359,669.267761 495.558624,661.179810   C496.102509,657.669800 495.649841,654.005432 495.649841,650.202515   C489.658752,654.098572 487.710632,662.225342 491.217773,667.658936   C491.936310,668.772217 492.782288,669.825317 493.693787,670.788574   C500.689148,678.180969 500.783630,678.308228 492.146301,683.692200   C477.461151,692.846130 462.675110,701.833984 448.260895,711.421204   C444.635406,713.832581 440.497314,715.124939 435.904968,713.737732   C435.261597,709.983032 437.734009,708.077148 439.959595,706.170593   C452.141022,695.735718 465.266174,686.754822 480.127472,680.513000   C482.129639,679.672119 482.581329,678.408630 481.534821,676.583740   C480.955750,675.573914 480.285583,674.614746 479.631653,673.649597   C475.306427,667.266418 474.395874,660.893982 479.227600,654.241577   C485.991119,644.929443 488.477173,633.646118 493.157715,623.370178   C494.462158,620.506287 493.638702,618.539307 490.677399,617.479370   C487.388245,616.302002 486.799225,613.878540 487.167694,610.685425   C488.183167,601.886597 487.560333,593.046997 487.523621,584.224365   C487.510406,581.047241 485.955078,579.244324 482.713135,578.191040   C468.978394,573.728394 464.517944,565.535400 467.883118,551.434326   C468.342133,549.510803 467.681274,547.809937 467.402222,546.037476   C466.689362,541.510376 467.493256,537.322266 470.583496,533.948425   C472.276550,532.099976 472.151245,530.794800 471.146942,528.695374   C468.613708,523.399902 469.721191,518.053345 474.300293,514.348572   C480.427216,509.391449 487.357178,507.162109 495.274597,509.524048   C497.227905,510.106812 499.455505,511.739349 500.998322,508.963562   C502.265961,506.682922 501.714935,504.533752 500.080750,502.510345   C495.340118,496.640503 495.563019,493.583038 501.134186,485.743866   C503.984711,481.732971 510.841675,479.644470 516.048279,481.635345   C519.775085,483.060364 523.342407,484.815704 527.385620,485.285583   C529.075073,485.481964 530.624084,486.231598 530.972534,488.230255   C531.302612,490.123627 530.437988,491.524353 528.900757,492.421143   C526.350647,493.908813 525.557617,495.984314 525.229919,498.949554   C524.453369,505.975525 524.257019,511.966553 514.734192,513.991394   C514.013977,515.563904 514.959351,516.529907 516.074402,517.325745   C525.289490,523.902954 526.214661,533.808899 525.687744,543.670776   C525.425903,548.572937 525.521179,552.899231 528.107117,557.000671   C531.496033,562.375610 535.001709,567.676880 538.836914,573.595947   C541.764343,569.336487 540.725342,565.653870 541.123535,562.377136   C542.047607,554.772278 545.407776,547.191772 541.857605,539.321045   C540.863647,537.117432 541.942749,534.614502 544.192383,533.252563   C546.003906,532.155884 548.161987,532.088806 549.872681,533.341736   C552.132019,534.996521 551.685791,537.688049 551.063293,539.815063   C548.301270,549.253357 546.146912,558.878784 545.053223,568.574463   C542.058594,595.123718 535.933655,621.224792 534.969727,648.105957   C534.467468,662.110657 532.752563,676.256897 529.768127,690.101257   C529.281006,692.360779 528.932739,694.622375 529.843384,696.870667   C530.289246,696.870667 530.737244,697.007812 530.896484,696.851196   C548.638977,679.401794 569.942322,666.940247 590.928223,654.049438   C595.797913,651.058167 600.425659,647.764038 604.091125,643.418762   C610.328796,636.024231 618.520874,633.824646 627.671814,633.640503   C639.509399,633.402344 651.075562,634.559998 662.766357,637.044495   C671.670776,638.936890 680.704651,639.929504 689.249451,643.413147   C692.215027,644.622253 696.587708,641.686462 697.401794,638.624146   C698.054321,636.169434 696.491028,635.080872 694.686218,634.621887   C677.150330,630.162292 659.824341,624.557129 641.465881,624.388977   C632.980164,624.311279 624.489258,624.587952 616.032837,623.482422   C613.872925,623.200012 611.922913,622.909546 611.756653,620.309021   C611.256348,612.484924 606.072693,607.714111 600.484985,603.423523   C595.347107,599.478333 589.950928,595.825317 583.864258,593.372070   C582.062256,592.645813 580.006287,592.153870 579.369202,589.826111   C580.512634,587.694519 582.324219,587.974365 584.119568,588.482666   C586.680481,589.207581 589.572144,589.501587 591.687988,590.923828   C598.279480,595.354675 605.471375,594.937012 612.850830,594.727783   C624.994019,594.383423 636.884277,596.547852 648.897217,598.186340   C662.471008,600.037842 675.615540,603.089233 688.710876,606.703674   C693.824158,608.114868 698.791077,610.076477 703.397949,612.808289   C704.113403,613.232544 704.830566,613.712158 705.612549,613.954895   C707.970764,614.686890 710.826782,615.954956 712.262573,613.065125   C713.692139,610.187805 711.791443,608.156860 709.156738,606.670776   C698.880615,600.875000 687.596191,597.919739 676.276367,595.276062   C658.819153,591.198853 641.316345,586.805359 623.393311,585.755310   C603.304626,584.578491 583.456604,580.466125 563.213562,581.247864   C554.727966,581.575562 554.355957,580.804504 555.497925,572.485535   C556.607788,564.400696 556.606079,564.487366 564.828308,564.656067   C574.807983,564.860779 584.776367,564.652405 594.737244,565.933838   C617.082703,568.808594 639.815735,568.775269 661.721741,574.947144   C661.992310,575.023376 662.346680,574.802307 662.727966,574.702759   C664.225220,573.218262 663.615784,571.274658 663.618164,569.527893   C663.657898,539.694885 663.553345,509.861206 663.741272,480.029297   C663.770142,475.447601 662.421875,473.666382 657.827026,473.944611   C653.846619,474.185638 649.831970,473.964630 645.836792,473.825256   C642.438721,473.706757 640.627502,471.901764 640.712585,468.419464   C640.798828,464.892517 642.382507,462.712555 646.144165,462.684387   C650.143616,462.654449 654.170471,462.407928 658.136353,462.779205   C662.780334,463.213959 664.108826,461.170105 663.648560,456.969788   C663.250671,453.338043 662.750122,449.679626 662.822083,446.043457   C662.921326,441.027374 665.587524,438.420227 669.714172,438.729767   C674.533875,439.091309 675.718262,442.182312 675.345764,446.392883   C675.009766,450.190948 674.732483,453.995087 674.332458,457.786346   C673.952820,461.384094 675.228149,462.994171 679.081360,462.736572   C683.229004,462.459290 687.412964,462.588135 691.575623,462.717621   C694.974731,462.823364 697.207764,464.279999 697.389404,468.123322   C697.572632,471.998840 695.432739,473.727600 692.060303,473.974274   C687.750244,474.289551 683.397827,474.376556 679.082703,474.167542   C675.285706,473.983643 673.988586,475.475189 674.347168,479.141083   C676.509766,501.247742 674.755493,523.417908 675.356995,545.550293   C675.610901,554.889648 673.908813,564.127930 674.223389,573.483154   C674.342773,577.033813 675.685669,578.615723 678.902344,579.320496   C691.416809,582.062561 703.674500,585.715210 715.744080,589.991760   C719.226379,591.225708 721.421936,590.604431 722.464844,586.710327   C728.732300,563.307983 732.274292,539.518494 731.684631,515.284546   C730.799316,478.896423 722.284363,444.390686 703.288879,413.116760   C686.361023,385.246979 663.616272,362.668365 636.568237,344.515808   C615.074341,330.090698 591.583984,320.094086 566.418213,314.067291   C563.041016,313.258514 559.565063,312.857422 556.130066,312.296326   C553.416260,311.853088 550.976379,310.760803 549.107727,308.779358   C547.044312,306.591461 544.730652,304.100983 546.130737,300.858856   C547.530640,297.617157 550.430908,295.973816 554.074768,295.663513   C561.572815,295.024994 568.622375,297.364960 575.636047,299.225525   C615.341309,309.758240 650.188232,328.803284 679.804016,357.670715   C700.639038,377.979187 717.277100,401.114227 729.003906,427.479065   C738.464539,448.748993 745.045837,471.043976 746.630005,494.631104   C747.433960,506.600769 748.719055,518.545105 748.102356,530.528503   C746.665039,558.461548 741.617432,585.543945 729.690063,611.192993   C719.791504,632.479248 707.605408,652.274109 692.869568,670.429443   C674.827454,692.658264 652.900452,710.347046 627.878235,724.316162   C609.437683,734.610779 589.964294,742.286987 569.649658,747.697693   C558.418701,750.689026 546.676697,751.142212 535.111755,752.318237   C530.980713,752.738220 526.827881,752.940552 522.695129,753.345947   C519.445862,753.664551 517.723328,752.389709 517.302185,749.069214   C515.753845,736.861877 516.235596,724.808411 520.425720,713.153931   C522.241882,708.102600 523.793274,703.068359 524.161316,697.255249  M588.096680,687.633545   C579.153687,692.884521 571.045593,699.286194 563.555420,706.382629   C555.443237,714.068359 547.841614,722.267578 545.258362,733.716248   C544.915405,735.236145 543.701111,737.082458 545.634888,738.253418   C547.601501,739.444214 549.100403,737.950073 550.433289,736.706055   C551.276367,735.919312 551.906555,734.908142 552.659241,734.020447   C561.373840,723.741699 570.030945,713.483521 580.980469,705.324341   C605.274963,687.221313 631.679932,675.753784 662.696411,677.743225   C663.857971,677.817749 665.027954,677.909119 666.186584,677.848938   C668.448425,677.731506 670.128052,676.541382 670.351257,674.302551   C670.576477,672.043213 668.581848,671.122559 666.815613,670.746704   C664.396912,670.231995 661.858582,670.310547 659.404968,669.923401   C648.082458,668.136963 636.841553,668.801086 625.781128,671.495178   C612.595276,674.706909 600.564392,680.801025 588.096680,687.633545  z"/>
<path fill="#ffffff" opacity="1.000000" stroke="none" d=" M437.726105,685.743835   C424.157715,695.695312 412.458588,706.935486 404.103210,721.304993   C402.025391,724.878296 399.630859,723.847900 397.010498,722.180298   C378.406158,710.340515 360.869537,697.227417 345.652771,681.091431   C325.243103,659.448914 308.429626,635.467834 296.378235,608.205261   C289.499908,592.645142 283.067322,576.760437 281.247101,559.852844   C279.278259,541.564697 277.709564,523.169983 279.200653,504.606781   C280.229462,491.798676 281.548004,479.084442 284.934387,466.760986   C290.273895,447.329590 296.878754,428.299896 306.891815,410.663605   C333.120178,364.466827 370.386963,330.742676 419.620209,310.271759   C434.444153,304.108063 449.811737,300.036224 465.279541,296.142242   C467.181213,295.663544 469.238953,295.693451 471.225372,295.683441   C477.243073,295.653168 480.129242,297.789795 480.479950,302.393738   C480.867523,307.481812 477.449524,311.507568 471.993286,312.290405   C458.776245,314.186707 446.028961,317.720703 433.484802,322.334015   C408.633240,331.473572 386.318298,344.782745 366.538300,362.280609   C333.736053,391.298309 311.214264,426.584259 300.756470,469.476013   C295.043854,492.905823 294.709747,516.605896 295.512177,540.368225   C296.119110,558.341675 300.386841,575.802429 305.591400,593.011414   C307.000305,597.669922 309.781708,596.486450 312.495514,595.107971   C322.659241,589.945435 333.531677,586.907959 344.499573,584.149292   C367.354126,578.401001 390.065918,571.719666 413.544159,569.189514   C426.073792,567.839355 438.323090,564.304565 451.061584,564.610413   C454.658539,564.696838 456.576263,565.836914 457.394836,569.419922   C458.159546,572.766968 459.480011,575.987061 460.665436,579.596680   C458.091919,580.156677 455.706024,581.166992 453.348480,581.104736   C442.423706,580.816162 431.989868,583.986694 421.316528,585.407532   C414.102722,586.367798 406.957062,587.981140 399.857666,589.632324   C381.269928,593.955383 362.689575,598.360962 344.553528,604.348755   C338.579895,606.320984 332.802429,608.976379 327.113739,611.693115   C322.859589,613.724792 320.623138,617.246155 321.279541,622.261230   C321.650970,625.099121 323.136658,626.208923 325.713074,625.225098   C328.342560,624.220947 331.216919,623.261902 333.279175,621.471252   C342.440582,613.516541 353.842682,610.956055 364.972870,607.657837   C371.822418,605.628235 378.596344,603.320557 385.500488,601.503418   C395.576752,598.851440 405.791504,596.745911 415.942017,594.409729   C424.027130,592.548889 432.213776,591.537964 440.324463,589.994507   C449.964661,588.160095 459.773071,587.590759 469.590210,587.582153   C473.227509,587.578979 475.028412,589.708374 475.233185,593.236450   C475.460388,597.150879 474.122375,600.095825 470.049622,601.247620   C463.158203,603.196594 456.061249,604.073608 449.028961,605.293518   C437.765472,607.247437 426.483917,609.279053 415.633484,612.888855   C401.921936,617.450562 387.893372,620.973206 374.371765,626.190613   C363.299347,630.462952 352.732086,635.668640 342.329590,641.274780   C339.361420,642.874451 337.914886,649.795410 339.869049,652.349609   C341.657074,654.686584 343.830200,653.453064 345.715424,652.471069   C352.949188,648.703003 360.061371,644.697937 367.337341,641.015259   C384.285431,632.436951 402.037354,626.161804 420.423096,621.243958   C429.194763,618.897705 437.900238,616.186646 446.756317,614.031555   C454.767822,612.082031 463.031616,611.009338 470.525208,607.139221   C472.948181,605.887817 474.950806,607.138367 475.091370,609.893066   C475.365570,615.266541 476.745178,620.366089 478.178772,625.495056   C479.332672,629.623291 476.742035,631.261658 473.269165,632.037231   C446.702515,637.970520 421.512177,647.721863 397.271576,659.923828   C389.553467,663.808960 382.367249,668.753235 376.255249,675.026611   C375.562500,675.737610 374.866455,676.486023 374.359039,677.329651   C372.705963,680.077942 371.967377,683.382019 374.098938,685.734070   C376.628113,688.524841 379.566071,685.937073 381.618561,684.367615   C389.838257,678.082581 398.299164,672.123047 407.269775,667.033813   C427.862518,655.351013 449.564972,646.319214 472.529449,640.719727   C474.248566,643.397766 472.566956,644.975769 471.690796,646.645325   C469.037964,651.700562 466.722961,656.778442 467.280731,662.761047   C467.631378,666.522461 465.502563,668.861328 462.199493,670.558899   C453.747070,674.902954 445.651611,679.857056 437.726105,685.743835  z"/>
<path fill="#ffffff" opacity="1.000000" stroke="none" d=" M474.184814,350.169098   C484.161163,342.083893 493.851135,334.211853 503.583313,326.392303   C505.345062,324.976776 506.943207,323.453949 506.801300,321.064941   C506.225891,311.376343 508.031891,301.795074 507.997711,292.133331   C507.986755,289.038483 507.541992,286.752777 503.483063,287.896088   C501.485901,288.458649 499.492920,287.651855 497.727631,286.705353   C495.392426,285.453308 493.626404,283.492096 494.016602,280.722992   C494.422668,277.841217 496.374603,276.232178 499.366028,275.579193   C501.941559,275.016968 505.140564,276.479095 506.983154,274.493347   C508.909149,272.417664 506.744843,269.365784 507.211700,266.772308   C507.532593,264.989777 507.831848,263.127716 508.597321,261.518372   C509.785919,259.019531 512.058105,258.005249 514.807495,258.274078   C517.678650,258.554840 519.313721,260.365173 519.917419,263.014648   C520.242310,264.440613 520.292786,266.008209 520.094543,267.461060   C519.004272,275.451752 518.964783,275.446381 526.861938,275.644745   C532.338318,275.782318 534.420898,277.564575 534.398682,282.027435   C534.374023,286.968018 531.105347,288.047546 527.075562,288.259857   C520.294922,288.617035 520.298645,288.618408 520.303833,295.612457   C520.309509,303.110077 520.376221,310.608643 520.272034,318.104797   C520.234619,320.797424 520.996216,322.806641 523.109375,324.624390   C535.353210,335.156830 547.489929,345.813690 559.677612,356.411530   C561.566406,358.053894 563.692505,359.543823 564.610718,361.951538   C565.974548,365.527832 566.147766,369.080872 561.730408,370.572784   C558.807922,371.559753 557.977112,373.328735 557.897949,376.120178   C557.430603,392.597626 556.912598,409.073883 556.326172,425.547485   C556.228638,428.288666 557.694336,429.758911 559.693970,431.195709   C581.194397,446.645050 602.680481,462.114655 624.129578,477.635101   C630.966553,482.582275 631.506226,486.180908 626.499573,490.709412   C624.044983,492.929565 621.184387,492.854248 618.526367,491.935303   C614.167358,490.428253 613.289246,492.207733 613.309143,496.123535   C613.404053,514.783875 613.362671,533.444946 613.342651,552.105713   C613.333923,560.283875 607.836853,563.582642 600.480896,559.718445   C597.720215,558.268250 597.747803,555.290710 597.719482,552.670715   C597.614746,543.008179 597.655945,533.344055 597.652039,523.680481   C597.646667,510.517944 597.592224,497.354980 597.694458,484.193237   C597.717163,481.277069 596.983704,479.135834 594.440063,477.448975   C570.708984,461.711212 548.758301,443.469666 524.903625,427.914032   C520.615967,425.118042 516.940308,420.028656 511.944824,419.997009   C506.970764,419.965515 503.092834,424.857330 498.953308,427.763641   C479.204010,441.629181 459.341278,455.353699 440.324463,470.236298   C438.357269,471.775818 436.512207,473.714447 434.268158,474.610352   C428.086578,477.078369 427.075653,481.541901 427.176788,487.686340   C427.536041,509.506866 427.332031,531.336914 427.309204,553.163391   C427.301910,560.143372 419.805603,564.430847 413.610596,560.952209   C411.135101,559.562134 411.637817,556.898804 411.630035,554.643250   C411.567322,536.492432 411.579071,518.341370 411.559418,500.190338   C411.557800,498.691895 411.580719,497.185089 411.438721,495.696838   C411.151825,492.690094 410.439728,490.570404 406.437469,491.856873   C401.793610,493.349548 399.390320,490.181000 397.584320,486.515106   C395.674103,482.637634 397.034454,479.701172 400.470123,477.610352   C415.154449,468.673981 428.406860,457.720215 442.468079,447.908386   C450.796600,442.096832 458.293304,435.157074 467.013672,429.884735   C468.906708,428.740204 469.672424,427.120087 469.663971,424.894196   C469.603851,409.066132 469.595215,393.237793 469.617767,377.409607   C469.622101,374.347260 468.348358,372.591034 465.373993,371.511780   C459.289673,369.304108 458.052826,363.979156 462.692688,359.550446   C466.173157,356.228394 470.154572,353.431152 474.184814,350.169098  M485.541016,414.913300   C486.553314,416.691315 487.708954,415.841553 488.858826,415.094116   C493.603119,412.010529 498.410919,409.019623 503.078156,405.823517   C512.233276,399.554138 512.845581,399.498688 522.064758,405.668091   C522.755981,406.130676 523.382996,406.690552 524.081726,407.140198   C529.149658,410.401703 534.228455,413.646545 539.403076,416.960205   C540.039917,415.818512 540.478333,415.399109 540.478149,414.979919   C540.470276,399.007111 540.947266,383.047546 541.688049,367.093781   C541.807129,364.529510 540.485413,362.578491 538.546814,361.144745   C530.760559,355.386230 523.763855,348.721222 516.672424,342.171112   C514.027527,339.728058 511.947754,339.999969 509.366150,342.346619   C502.717804,348.389832 495.979980,354.345245 489.064087,360.077789   C486.511292,362.193787 485.294159,364.434845 485.316071,367.727661   C485.419067,383.217834 485.389282,398.708862 485.541016,414.913300  z"/>
</svg>